<svg preserveAspectRatio="xMaxYMid slice" width="100%" height="128" viewBox="0 0 128 128" xmlns="http://www.w3.org/2000/svg" xmlns:xlink="http://www.w3.org/1999/xlink"><defs><path id="a" d="M0 0h128v128H0z"/><path id="c" d="M0 0h128v128H0z"/><radialGradient fx="50%" fy="50%" r="67.9331187%" id="e"><stop stop-color="#20C063" offset="0%"/><stop stop-color="#8FCE35" offset="25.3003071%"/><stop stop-color="#FFDC0B" offset="52.1676301%"/><stop stop-color="#FC951D" offset="73.0107478%"/><stop stop-color="#F84F32" offset="100%"/></radialGradient></defs><g fill="none" fill-rule="evenodd"><path fill="#E8E9EA" d="M0 0h128v128H0z"/><mask id="b" fill="white"><use xlink:href="#a"/></mask><g mask="url(#b)"><mask id="d" fill="white"><use xlink:href="#c"/></mask><g mask="url(#d)" stroke="#F5F6F7" stroke-linecap="round" stroke-linejoin="round" stroke-width="3"><path d="M13 132.728516L134.263672 14M64 132.728516L185.263672 14M110 132.728516L231.263672 14M115.586914-5.1738281l3.874024 24.3984375L-4.2509766 38.942383M-4 60.017456L95.894531 42.44812c4.065104-.597493 7.145508-.597493 9.241211 0 2.095703.597494 4.722656 2.631999 7.88086 6.103516l17.300781 18.104492M-73 128.017456l99.8945312-17.569336c4.0651038-.597493 7.1455078-.597493 9.2412108 0 2.095703.597494 4.722656 2.631999 7.88086 6.103516l17.300781 18.104492"/><path d="M59.044922 28.804688L64 66.344727l64 64.705078M-6 78.356445L64.494141 67M-5.3554688 96.460938L61.977539 84.897461M-2.078125 22.53125L131.44043 0M80.614258 83L32 131.864258M129.614258 84L81 132.864258M112.614258 114L64 162.864258M48.824219 130.09375l28.605469-28.035156 8.793945 8.988281M82.179688 115.170898l12.774414 15.078125"/><path d="M88.478516 90.84082c2.135439-3.070618 4.748721-4.329082 7.839843-3.77539 3.091123.553691 5.704404 2.748353 7.839844 6.583984M121.418945 57.257812c-4.498698 3.226167-6.748047 6.427827-6.748047 9.604981 0 3.177154 2.249349 6.378814 6.748047 9.60498M121.924805 43.307617l-7.626953 6.967774M118.299805 30.145508l12.668945 12.631836M93-4l7.168945 45.847656M68-4l9.148438 65.662109M16-4l17.5 114.5M39-25L56.5 89.5M-2 43l17.5 114.5M-8-78L9.5 36.5M46.305664 22.662109c3.681325-.7475449 6.054047-.7475449 7.118164 0 1.064118.747546 1.813141 2.94058 2.24707 6.579102M10 7.3916016L17.2548828 6M19 14.3916016L26.2548828 13"/></g><circle fill="url(#e)" style="mix-blend-mode:multiply" opacity=".15" mask="url(#d)" cx="-18" cy="88" r="172"/><path d="M64.0001187 45.2768713c-8.1155615 0-14.6942197 6.5676688-14.6942197 14.6699659 0 3.1749459 1.0137628 6.1114984 2.7305846 8.512732h-.0655112l11.9453583 14.2635595L75.2504882 69.379967c.2468539-.2933709.4813652-.5974055.7051953-.9092602l.0085449-.0111376c1.7163472-2.4012336 2.7298726-5.3377861 2.7298726-8.512732 0-8.1022971-6.5788956-14.6699659-14.6939823-14.6699659z" fill="#052286" mask="url(#d)"/><path fill="#FFFFFF" mask="url(#d)" d="M63.7350236 52.9803421l-6.506273 5.9699272v7.2813503h13.2512775l-.0032857-7.3723985z"/></g></g></svg>