<svg preserveAspectRatio="xMaxYMid slice" width="100%" height="128" viewBox="0 0 128 128" xmlns="http://www.w3.org/2000/svg" xmlns:xlink="http://www.w3.org/1999/xlink"><defs><path id="a" d="M0 0h128v128H0z"/><path id="c" d="M.93605373 0h128v128h-128z"/></defs><g fill="none" fill-rule="evenodd"><path fill="#E8E9EA" d="M0 0h128v128H0z"/><mask id="b" fill="white"><use xlink:href="#a"/></mask><g mask="url(#b)"><g transform="translate(-1)"><mask id="d" fill="white"><use xlink:href="#c"/></mask><g mask="url(#d)"><path d="M-7.8080869 33.970703c-5.6209941-8.1220314 5.9167663-6.7359636 34.6132813 4.158203C69.849967 54.470157 86.915769 66.544732 105.047382 76.814453c18.131613 10.269721 12.578125 15.8125 30.09375 22.675781" stroke="#F5F6F7" stroke-width="3" stroke-linecap="round" stroke-linejoin="round"/><path d="M67.686054 90.587891L80.076679 64l7.116788-14.895219c1.626052-4.741349 4.12358-7.50349 7.492587-8.286422 3.369006-.782932 7.407845.460206 12.116516 3.729412l28.863952 14.053791M84.436054-40.5L34.9360537 40.724609M112.436054-52.5l-49.5 81.2246094M130.436054-51.5c-24.249368 43.2283975-39.416034 69.2616006-45.5 78.0996094C75.810105 39.856622 64.046999 43.043435 58.782009 52.589844c-5.264989 9.546409 1.286857 20.769531-4.258065 31.757812C50.82733 91.673177 45.7980329 101.390625 39.4360537 113.5M84.436054-69.5L34.9360537 11.7246094M83.506366 97.910156l40.978516-85.6054685M99.092304-5.1289062l36.597656 25.2089843" stroke="#F5F6F7" stroke-width="3" stroke-linecap="round" stroke-linejoin="round"/><path stroke="#F5F6F7" stroke-width="3" stroke-linecap="round" stroke-linejoin="round" d="M56.68996 67.836914L30.7466006 56.53418l-42.5683594-9.272461M-7.3832822 65.56543l33.7539062 6.509765 79.711914 36.798828M11.4096865 113.707031l23.7070313-72.849609M-4.3686338 113.009766l105.8671878 4.486328 12.051758 4.851562 2.455078 3.242188M134.315937 49.029297l-38.933594 83.393555M75.517108 36.969727L9.5991397-4.2705078M18.9917178 1.9833984L.9360537 30M8.0053897 18.6542969l-12.897461-8.6767578M28.542499 114.482422c4.0221355 9.410807 3.2578125 16.235026-2.2929687 20.472656M114.201679 122.064453c2.322265-7.83138 8.684245-10.047526 19.085937-6.648437"/><path d="M47.58754321 18.66021706l27.55145237 16.77264405S84.62782603 31.66223151 101.33626151 1.4e-7c1.47814925-.57427989 6.26177943-.0946657 6.26177943-.0946657l21.33801333 14.4208377.57966683 44.91449414-23.4051064 49.99969024-81.59356723-36.48657225.26672374-.91937274 22.803772-53.17419447z" fill="#32A8EA" opacity=".1"/><path fill="#32A8EA" opacity=".15" style="mix-blend-mode:multiply" d="M129.216938 59.900391l-23.19336 49.471923-7.703613 19.869996 38.215698 5.201049z"/><path fill="#32A8EA" opacity=".2" d="M-21.0278134-22.70312493l68.60839841 41.35839845L24.79420833 71.8291012.76770206 66.5949706z"/><path fill="#32A8EA" opacity=".1" d="M-10.0639463 112.916016H12.143085l12.6542969-41.066407L-1.7104306 66z"/></g><path d="M64.9361724 45.2768713c-8.1155615 0-14.6942197 6.5676688-14.6942197 14.6699659 0 3.1749459 1.0137628 6.1114984 2.7305847 8.512732h-.0655113l11.9453584 14.2635595L76.1865419 69.379967c.246854-.2933709.4813652-.5974055.7051953-.9092602l.008545-.0111376c1.7163471-2.4012336 2.7298725-5.3377861 2.7298725-8.512732 0-8.1022971-6.5788955-14.6699659-14.6939823-14.6699659z" fill="#052286" mask="url(#d)"/><path fill="#FFFFFF" mask="url(#d)" d="M64.6710773 52.9803421l-6.506273 5.9699272v7.2813503h13.2512775l-.0032857-7.3723985z"/></g></g></g></svg>