<svg preserveAspectRatio="xMaxYMid slice" width="100%" height="128px" viewBox="0 0 128 128" version="1.1" xmlns="http://www.w3.org/2000/svg" xmlns:xlink="http://www.w3.org/1999/xlink"><defs><path id="a" d="M0 0h128v128H0z"/><path id="c" d="M0 0h128v128H0z"/></defs><g fill="none" fill-rule="evenodd"><path fill="#E8E9EA" d="M0 0h128v128H0z"/><mask id="b" fill="white"><use xlink:href="#a"/></mask><g mask="url(#b)"><mask id="d" fill="white"><use xlink:href="#c"/></mask><g mask="url(#d)" stroke="#F5F6F7" stroke-linecap="round" stroke-linejoin="round" stroke-width="3"><path d="M5 139.057617l26.375-95.3681639L58.435547.18945312M116.293945-2L35 141.572266M21.2939453-2L-60 141.572266M179.293945-2L98 141.572266"/><path d="M38.9326172-.75585938l-3.897461 22.60156248C41.2343 27.9093557 46.23137 30.7781708 50.026367 30.4521484c3.794997-.3260223 7.467523-3.9396291 11.017578-10.8408203M-3.5 86.5l86.783203 48.856445M11 117l67.283203 37.356445M-.5 65.5l126 70M31.5 42.5l145 80M17.5 40.5l12 9M.5 104.5l13 5M36.5 24.5l-6 22M30.5 114.5l-7 14M48.5 30.5l145 80M37.5 6.5l145 80M64.5-.5l145 80M95.5-3.5l145 80M0 45l139.5 77.5"/></g><g mask="url(#d)" stroke="#3B4144" stroke-linejoin="round"><path d="M12.38612532 64.7553282c.96003836 0 .32001279.6564365 2.24008951.6564365 1.92007677 0 3.84015347-3.9386189 3.84015347-6.56436487 0-2.62574595-1.600064-4.59505541-3.52014068-4.59505541-1.92007672 0-1.92007672.65643648-2.5601023.65643648-.64002558 0-.64002558-.65643648-2.5601023-.65643648-1.92007673 0-3.52014067 1.96930946-3.52014067 4.59505541 0 2.62574597 1.92007673 6.56436487 3.84015346 6.56436487 1.92007672 0 1.28005115-.6564365 2.24008951-.6564365z"/><path d="M12.38612532 54.9087809v-1.31287297c0-.72208014-.57602302-1.31287298-1.28005115-1.31287298H9.82602302" stroke-linecap="round"/><path d="M13.66617647 53.26768968c1.59046356 0 2.88011513-1.32206308 2.88011513-2.95396419-1.59046359 0-2.88011513 1.32337596-2.88011513 2.95396419z"/></g><g mask="url(#d)" fill="#BBC2C8" stroke="#FFFFFF"><circle cx="8.5" cy="8.5" r="8.5" transform="translate(83 70)"/></g><g mask="url(#d)" fill="#BBC2C8" stroke="#FFFFFF"><circle cx="8.5" cy="8.5" r="8.5" transform="translate(92 40)"/></g><g mask="url(#d)"><g transform="translate(6 42)"><circle stroke="#FFFFFF" fill="#BBC2C8" cx="8.5" cy="16.5" r="8.5"/><path d="M9.07331339 12.7408197v.316252l1.91104071 1.36654v2.5476865l2.0584624 1.281566v2.9102918H9.0505673v-2.7216237H7.9494327v2.7216237H3.9571835v-2.9102918l2.05846236-1.281566v-2.5476865l1.91853758-1.3719331v-.8804239h.00781467v-1.1391299H10.789823v1.7086949H9.07331339zm-.56175031 3.6484812c.47184308 0 .85434746-.3825044.85434746-.8543475 0-.471843-.38250438-.8543474-.85434746-.8543474-.47184307 0-.85434746.3825044-.85434746.8543474 0 .4718431.38250439.8543475.85434746.8543475zM95.0528056 2.60978842v.31625205l1.9110407 1.36653995v2.54768649l2.0584624 1.281566v2.91029189h-3.9922492V8.310501h-1.1011346v2.7216238h-3.9922492V8.12183291l2.0584623-1.281566V4.29258042l1.9185376-1.37193307v-.8804239h.0078147V.9010935h2.8478249v1.70869492h-1.7165096zm-.5617503 3.64848123c.471843 0 .8543474-.38250438.8543474-.85434746 0-.47184307-.3825044-.85434746-.8543474-.85434746-.4718431 0-.8543475.38250439-.8543475.85434746 0 .47184308.3825044.85434746.8543475.85434746zM85.9671726 32.2943587v.3162521l1.9110407 1.3665399v2.5476865l2.0584624 1.281566v2.9102919h-3.9922492v-2.7216238h-1.1011346v2.7216238h-3.9922492v-2.9102919l2.0584623-1.281566v-2.5476865l1.9185376-1.371933v-.8804239h.0078147v-1.13913h2.8478249v1.7086949h-1.7165096zm-.5617503 3.6484813c.471843 0 .8543474-.3825044.8543474-.8543475s-.3825044-.8543475-.8543474-.8543475c-.4718431 0-.8543475.3825044-.8543475.8543475s.3825044.8543475.8543475.8543475z" fill="#FFFFFF"/></g></g><path d="M64.0001187 45.2768713c-8.1155615 0-14.6942197 6.5676688-14.6942197 14.6699659 0 3.1749459 1.0137628 6.1114984 2.7305846 8.512732h-.0655112l11.9453583 14.2635595L75.2504882 69.379967c.2468539-.2933709.4813652-.5974055.7051953-.9092602l.0085449-.0111376c1.7163472-2.4012336 2.7298726-5.3377861 2.7298726-8.512732 0-8.1022971-6.5788956-14.6699659-14.6939823-14.6699659z" fill="#052286" mask="url(#d)"/><path fill="#FFFFFF" mask="url(#d)" d="M63.7350236 52.9803421l-6.506273 5.9699272v7.2813503h13.2512775l-.0032857-7.3723985z"/></g></g></svg>