<svg preserveAspectRatio="xMaxYMid slice" width="100%" height="128" viewBox="0 0 128 128" xmlns="http://www.w3.org/2000/svg" xmlns:xlink="http://www.w3.org/1999/xlink"><defs><path id="a" d="M0 0h128v128H0z"/><path id="c" d="M0 0h128v128H0z"/></defs><g fill="none" fill-rule="evenodd"><path fill="#E8E9EA" d="M0 0h128v128H0z"/><mask id="b" fill="white"><use xlink:href="#a"/></mask><g mask="url(#b)"><mask id="d" fill="white"><use xlink:href="#c"/></mask><g mask="url(#d)" stroke="#F5F6F7" stroke-linecap="round" stroke-linejoin="round" stroke-width="3"><path d="M112-11l21 133M83-3l22.452381 137.460937M66 72l22.452381 137.460938M75 8l10.45 60.455357M-8-59L2.45 1.4553571M36 77l22.452381 137.460938M9 81l22.452381 137.460938M-19 86l156-26M-30 110l156-26M-26 129l156-26M-17 149l156-26M82 49l156-26M78 29L234 3M75 8l156-26M-26 6l156-26M75 8l-46.5803054 6.8691535L8.5429173 26.3485698-15 30M25-2l10 16M52-7l2.4151986 6.6150412L73 8M54-4L86 6M5 27.0150051L9.4345309 68.562282c7.6759491 1.112727 18.8938851.103948 33.6538079-3.026338C57.8482616 62.405657 67.485482 59.730229 72 57.509658l-2.9799624-22.1973363L57.0568467 21"/><path d="M6 36l8.9726029-1.4349908c7.5645601-7.7345556 17.8871783-12.1641901 30.9678547-13.2889033C59.021134 20.1513927 69.7076482 22.4628058 78 28.2103451M21 30l3 39"/><path d="M32 24l8.2487365 24.154192L42 66M47 21l6.3967186 14.9028687L57 62M72 58l-6 14M8 53l-10.4682667 1.570397C-6.1560889 55.861217-8 59.964684-8 66.880799S-6.1560889 79.169981-2.4682667 83"/></g><g mask="url(#d)" fill="#F3DA9C" stroke="#FFFFFF"><circle cx="8.5" cy="8.5" r="8.5" transform="translate(83 70)"/></g><g mask="url(#d)"><g transform="translate(9 26)"><circle stroke="#FFFFFF" fill="#F3DA9C" cx="8.5" cy="8.5" r="8.5"/><path d="M12.8362602 5.8287547l-.9487152 2.44896932H4.31317571L3.5 5.8287547h8.243308l.6636909-1.70852447H13.5l-.6636908 1.70852447zM4.6610828 9.32550814h6.8205227l-.4294326 1.10831626H5.02910674L4.6610828 9.32550814zM9.92958063 12.667008c-.28214964-.2698351-.28214964-.7131734 0-.9830085.28214967-.269835.74565067-.269835 1.02780027 0 .2821497.2698351.2821497.7131734 0 .9830085-.2821496.269835-.7456506.269835-1.02780027 0zm-4.54076826.0103855c-.28214965-.2698939-.28214965-.7131734 0-.9830672.28214964-.2697763.74565062-.2697763 1.02780027 0 .28214964.2698938.28214964.7131733 0 .9830672-.28214965.269835-.74565063.269835-1.02780027 0zM87.1697563 49.9673135l-.9487152 2.4489693h-7.5743693l-.8131757-2.4489693h8.243308l.6636909-1.7085244h1.0930011l-.6636908 1.7085244zm-8.1751774 3.4967535h6.8205227l-.4294326 1.1083162h-6.0230662l-.3680239-1.1083162zm5.2684978 3.3414998c-.2821496-.2698351-.2821496-.7131734 0-.9830084.2821497-.2698351.7456507-.2698351 1.0278003 0 .2821496.269835.2821496.7131733 0 .9830084s-.7456506.2698351-1.0278003 0zm-4.5407682.0103855c-.2821497-.2698939-.2821497-.7131734 0-.9830672.2821496-.2697763.7456506-.2697763 1.0278002 0 .2821497.2698938.2821497.7131733 0 .9830672-.2821496.2698351-.7456506.2698351-1.0278002 0z" fill="#FFFFFF"/></g></g><g mask="url(#d)" fill="#F69583" stroke="#FFFFFF"><circle cx="8.5" cy="8.5" r="8.5" transform="translate(49 106)"/></g><g mask="url(#d)" fill="#F69583" stroke="#FFFFFF"><circle cx="8.5" cy="8.5" r="8.5" transform="translate(4 73)"/></g><g mask="url(#d)" fill="#F69583" stroke="#FFFFFF"><circle cx="8.5" cy="8.5" r="8.5" transform="translate(29 51)"/></g><g mask="url(#d)"><g transform="translate(8 3)"><circle stroke="#FFFFFF" fill="#F69583" cx="87.5" cy="8.5" r="8.5"/><path d="M90.7065603 3.59002536c.5813263 0 .6395935.17520078.6395935.58584165V13.5h-1.0666302V9.93625829l-1.0034272-.01558909c-.1784555-.01129086-.3415909-.10033468-.4476129-.24429314-.0993556-.13484879-.1378799-.30331355-.107881-.46690271l.7840758-5.15305851.0053203-.02238926c.1376876-.57018841.4570998-.44400022 1.1965617-.44400022zM87.7995378 3.5c.2944772 0 .5333152.23903263.5333152.53374973v2.21339339c0 .95901739-.7844604 1.7490568-1.7836571 1.83777986v5.41505782h-1.0666302V8.08704002c-1.0203497-.0686433-1.8287195-.86657348-1.8287195-1.8398969V4.06973934c0-.29478125.2387738-.53374973.5333151-.53374973.2944771 0 .533251.23896848.533251.53374973v2.17740378c0 .38786669.3310784.70959204.7621534.76861244V4.03374973c0-.2947171.238838-.53374973.5333151-.53374973.2945413 0 .5333151.23903263.5333151.53374973V7.0093403c.4090245-.07454533.7170268-.38793084.7170268-.76219718V4.03374973c0-.2947171.238838-.53374973.5333151-.53374973zM32.1201345 51.834166c.5813263 0 .6395936.1752008.6395936.5858416v9.324133h-1.0666303v-3.5637417l-1.0034272-.0155891c-.1784555-.0112908-.3415909-.1003347-.4476129-.2442931-.0993556-.1348488-.1378799-.3033136-.107881-.4669027l.7840758-5.1530585.0053204-.0223893c.1376876-.5701884.4570997-.4440002 1.1965616-.4440002zm-2.9070224-.0900254c.2944771 0 .5333151.2390327.5333151.5337498v2.2133933c0 .9590174-.7844604 1.7490568-1.783657 1.8377799v5.4150578h-1.0666303v-5.4129408c-1.0203497-.0686433-1.8287195-.8665734-1.8287195-1.8398969V52.31388c0-.2947813.2387739-.5337498.5333151-.5337498.2944771 0 .533251.2389685.533251.5337498v2.1774037c0 .3878667.3310784.7095921.7621534.7686125v-2.9820058c0-.2947171.238838-.5337498.5333152-.5337498.2945412 0 .5333151.2390327.5333151.5337498v2.9755905c.4090245-.0745453.7170267-.3879308.7170267-.7621972v-2.2133933c0-.2947171.238838-.5337498.5333152-.5337498zM7.2773611 73.4420761c.58132629 0 .63959353.1752008.63959353.5858417v9.324133H6.8503244v-3.5637417L5.84689715 79.77272c-.17845544-.0112909-.34159089-.1003347-.44761291-.2442932-.09935558-.1348488-.13787991-.3033135-.10788093-.4669027l.78407577-5.1530585.00532033-.0223892c.13768761-.5701884.45709977-.4440003 1.19656169-.4440003zm-2.90702248-.0900253c.29447712 0 .53331512.2390326.53331512.5337497v2.2133934c0 .9590174-.78446038 1.7490568-1.78365701 1.8377799v5.4150577H2.05336651v-5.4129407c-1.02034976-.0686433-1.82871958-.8665735-1.82871958-1.8398969v-2.1774038c0-.2947812.2387739-.5337497.53331512-.5337497.29447712 0 .53325101.2389685.53325101.5337497v2.1774038c0 .3878667.33107843.709592.76215345.7686124v-2.9820058c0-.2947171.23883799-.5337497.53331511-.5337497.29454122 0 .53331511.2390326.53331511.5337497v2.9755906c.40902449-.0745454.71702678-.3879309.71702678-.7621972v-2.2133934c0-.2947171.238838-.5337497.53331511-.5337497zM52.5058767 106.819518c.5813263 0 .6395936.1752.6395936.585841v9.324133H52.07884v-3.563742l-1.0034272-.015589c-.1784555-.01129-.3415909-.100334-.4476129-.244293-.0993556-.134849-.1378799-.303313-.107881-.466902l.7840758-5.153059.0053203-.022389c.1376876-.570189.4570998-.444 1.1965617-.444zm-2.9070225-.090026c.2944772 0 .5333152.239033.5333152.53375v2.213393c0 .959018-.7844604 1.749057-1.783657 1.83778v5.415058h-1.0666303v-5.412941c-1.0203497-.068643-1.8287195-.866573-1.8287195-1.839897v-2.177403c0-.294782.2387739-.53375.5333151-.53375.2944771 0 .533251.238968.533251.53375v2.177403c0 .387867.3310784.709592.7621534.768613V107.263242c0-.294717.238838-.53375.5333151-.53375.2945413 0 .5333152.239033.5333152.53375v2.97559c.4090244-.074545.7170267-.38793.7170267-.762197v-2.213393c0-.294717.238838-.53375.5333151-.53375z" fill="#FFFFFF"/></g></g><path d="M64.0001187 45.2768713c-8.1155615 0-14.6942197 6.5676688-14.6942197 14.6699659 0 3.1749459 1.0137628 6.1114984 2.7305846 8.512732h-.0655112l11.9453583 14.2635595L75.2504882 69.379967c.2468539-.2933709.4813652-.5974055.7051953-.9092602l.0085449-.0111376c1.7163472-2.4012336 2.7298726-5.3377861 2.7298726-8.512732 0-8.1022971-6.5788956-14.6699659-14.6939823-14.6699659z" fill="#052286" mask="url(#d)"/><path fill="#FFFFFF" mask="url(#d)" d="M63.7350236 52.9803421l-6.506273 5.9699272v7.2813503h13.2512775l-.0032857-7.3723985z"/></g></g></svg>